<svg xmlns="http://www.w3.org/2000/svg" version="1.1" width="347px" height="347px" style="shape-rendering:geometricPrecision; text-rendering:geometricPrecision; image-rendering:optimizeQuality; fill-rule:evenodd; clip-rule:evenodd" xmlns:xlink="http://www.w3.org/1999/xlink"><g><path style="opacity:0.994" fill="#f00605" d="M 154.5,-0.5 C 160.5,-0.5 166.5,-0.5 172.5,-0.5C 172.5,115.167 172.5,230.833 172.5,346.5C 166.5,346.5 160.5,346.5 154.5,346.5C 80.01,335.162 30.51,293.829 6,222.5C 3.2312,212.15 1.06453,201.816 -0.5,191.5C -0.5,179.167 -0.5,166.833 -0.5,154.5C 10.8378,80.01 52.1711,30.51 123.5,6C 133.85,3.2312 144.184,1.06453 154.5,-0.5 Z"/></g><g><path style="opacity:0.996" fill="#1197f4" d="M 172.5,-0.5 C 178.833,-0.5 185.167,-0.5 191.5,-0.5C 265.99,10.8378 315.49,52.1711 340,123.5C 342.769,133.85 344.935,144.184 346.5,154.5C 346.5,166.833 346.5,179.167 346.5,191.5C 335.162,265.99 293.829,315.49 222.5,340C 212.15,342.769 201.816,344.935 191.5,346.5C 185.167,346.5 178.833,346.5 172.5,346.5C 172.5,230.833 172.5,115.167 172.5,-0.5 Z"/></g><g><path style="opacity:1" fill="#fffdfc" d="M 150.5,50.5 C 152.833,50.5 155.167,50.5 157.5,50.5C 157.5,62.8333 157.5,75.1667 157.5,87.5C 122.485,93.012 98.6517,112.345 86,145.5C 74.7743,188.472 87.2743,222.639 123.5,248C 134.078,254.137 145.412,257.97 157.5,259.5C 157.5,271.5 157.5,283.5 157.5,295.5C 108.569,289.393 74.4025,263.726 55,218.5C 36.9153,164.569 48.4153,118.069 89.5,79C 107.571,64.6307 127.905,55.1307 150.5,50.5 Z"/></g><g><path style="opacity:1" fill="#fdfefe" d="M 188.5,50.5 C 238.178,57.0177 272.678,83.3511 292,129.5C 307.367,178.014 298.367,221.347 265,259.5C 243.832,280.498 218.332,292.498 188.5,295.5C 188.5,283.167 188.5,270.833 188.5,258.5C 228.501,252.003 253.334,229.003 263,189.5C 268.521,150.053 254.688,119.553 221.5,98C 211.197,92.1749 200.197,88.6749 188.5,87.5C 188.5,75.1667 188.5,62.8333 188.5,50.5 Z"/></g></svg>